HIERARCHY
ROOT Hand
{
	OFFSET 0.0 0.0 0.0 
	CHANNELS  6 Xposition Yposition Zposition Zrotation Xrotation Yrotation 
	JOINT Thumb Metacarpal
		{
		OFFSET 0.0 0.0 0.0
		CHANNELS  3 Zrotation Xrotation Yrotation 
		JOINT Thumb Proximal
			{
			OFFSET 0.0 0.0 0.0 
			CHANNELS  3 Zrotation Xrotation Yrotation 
			JOINT Thumb Intermediate
				{
				OFFSET -43.7650299072 1.84748840332 -4.17094421387 
				CHANNELS  3 Zrotation Xrotation Yrotation 
				JOINT Thumb Distal
				{
					OFFSET -29.8978462219 1.28786468506 -2.78747558594 
					CHANNELS  3 Zrotation Xrotation Yrotation 
					End Site
					{
						OFFSET -20.5065879822 0.80199432373 -2.10721588135
					}
				}
			}
		}
	}

	JOINT Index Metacarpal
		{
		OFFSET 0.0 0.0 0.0
		CHANNELS  3 Zrotation Xrotation Yrotation 
		JOINT Index Proximal
			{
			OFFSET -58.3669052124 11.4619598389 -25.8382263184 
			CHANNELS  3 Zrotation Xrotation Yrotation 
			JOINT Index Intermediate
				{
				OFFSET -34.791973114 4.73686218262 -14.188205719 
				CHANNELS  3 Zrotation Xrotation Yrotation 
				JOINT Index Distal
				{
					OFFSET -19.772567749 -0.628234863281 -7.91204833984 
					CHANNELS  3 Zrotation Xrotation Yrotation 
					End Site
					{
						OFFSET -13.8516540527 -2.27088928223 -5.45938491821
					}
				}
			}
		}
	}

	JOINT Middle Metacarpal
		{
		OFFSET 0.0 0.0 0.0
		CHANNELS  3 Zrotation Xrotation Yrotation 
		JOINT Middle Proximal
			{
			OFFSET -51.507106781 10.286529541 -31.9918174744 
			CHANNELS  3 Zrotation Xrotation Yrotation 
			JOINT Middle Intermediate
				{
				OFFSET -36.1753234863 -5.17570495605 -21.6754417419 
				CHANNELS  3 Zrotation Xrotation Yrotation 
				JOINT Middle Distal
				{
					OFFSET -21.0339393616 -7.8678817749 -11.1356220245 
					CHANNELS  3 Zrotation Xrotation Yrotation 
					End Site
					{
						OFFSET -13.3868103027 -7.39340209961 -6.3664855957
					}
				}
			}
		}
	}

	JOINT Ring Metacarpal
		{
		OFFSET 0.0 0.0 0.0
		CHANNELS  3 Zrotation Xrotation Yrotation 
		JOINT Ring Proximal
			{
			OFFSET -41.4766731262 8.28182220459 -35.496471405 
			CHANNELS  3 Zrotation Xrotation Yrotation 
			JOINT Ring Intermediate
				{
				OFFSET -29.7364387512 -7.68258666992 -24.655412674 
				CHANNELS  3 Zrotation Xrotation Yrotation 
				JOINT Ring Distal
				{
					OFFSET -18.10896492 -11.7530136108 -11.411772728 
					CHANNELS  3 Zrotation Xrotation Yrotation 
					End Site
					{
						OFFSET -11.2472915649 -10.798210144 -5.30597543716
					}
				}
			}
		}
	}

	JOINT Pinky Metacarpal
		{
		OFFSET 0.0 0.0 0.0
		CHANNELS  3 Zrotation Xrotation Yrotation 
		JOINT Pinky Proximal
			{
			OFFSET -33.0739479065 8.67585754395 -37.9927864075 
			CHANNELS  3 Zrotation Xrotation Yrotation 
			JOINT Pinky Intermediate
				{
				OFFSET -19.4502868652 -5.58915710449 -23.7055358887 
				CHANNELS  3 Zrotation Xrotation Yrotation 
				JOINT Pinky Distal
				{
					OFFSET -12.011631012 -8.61045837402 -8.87876605988 
					CHANNELS  3 Zrotation Xrotation Yrotation 
					End Site
					{
						OFFSET -10.2741765976 -10.352104187 -4.25884056091
					}
				}
			}
		}
	}
}

MOTION
Frames: 12
Frame Time: 61.6
9.48809719086 124.152549744 63.4390296936 -55.5404591107 -18.2666871578 29.7925478469 25.8699032543 -90.0000007342 26.5650738505 58.7168129805 -156.250949958 21.4160926961 64.9090147833 -78.0623226996 80.4883359255 23.5411080853 -137.101956115 -11.0675196687 12.8650772644 -48.2230734578 131.05431462 60.0509908587 -103.438024596 78.2462490063 15.9415989055 -38.9259474947 149.217746821 57.3516912681 -78.2794891548 83.3007234079 8.69934920676 -11.2552089468 177.256306172 56.8053718164 -78.5488198835 98.7260116052 10.3984376204 -29.8842567951 161.344710805 58.6313723972 -52.7232960312 111.671831612 11.0480625941 39.2774966511 -128.624363467 56.5129414767 -70.5381963886 107.726171883 12.9047154966 -4.50982324513 -169.133900206 61.836599357 -34.6737122772 124.659592593 16.2661772091 67.7960142255 -91.5739518269 54.0373502451 -61.80715427 121.846297975 7.94492145235 -4.71393372524 -163.554026408 67.7196118467 -25.4491542812 145.482734353 
9.17897891998 124.256355286 62.8165588379 -54.9593602698 -18.3605168826 29.6292311918 25.8698981538 -90.0000007994 26.5650714166 58.2369322894 -156.460874158 21.2610803685 64.7693468492 -78.0050372956 80.0836267716 23.2745389688 -138.513800745 -11.9936138377 12.8650722203 -48.2230808802 131.054311578 59.2135305245 -102.537083706 78.6648332467 16.4108917634 -38.3349725469 149.582786051 56.3354111156 -77.0383846328 83.8586267532 8.69934559947 -11.2552101539 177.256303486 56.3436166028 -79.1376543747 98.4764680767 11.6471548203 -27.2668586168 163.981616462 58.1925371037 -51.4007881287 111.581854057 11.0480551323 39.2775014166 -128.624366876 56.098641198 -71.0326503437 107.557348142 13.2695142844 -4.25059948981 -168.848495703 61.4919831297 -34.6788729067 124.610014941 16.2661737734 67.7960134181 -91.5739527131 53.5169934327 -61.9414275441 121.949986812 7.98809070446 -4.19886828981 -162.952626807 67.2155409625 -25.5514421369 145.722453151 
9.17615032196 124.032691956 61.7806663513 -54.2899368365 -18.8032651177 30.0642459451 25.8698966666 -89.9999978717 26.5650714624 57.6963211185 -157.05623169 20.6485118938 64.6572206392 -78.3824717396 79.339979209 22.9363103934 -140.172078361 -13.1414506896 12.8650635436 -48.2230712788 131.054311396 58.3478104646 -101.988398372 78.7985360543 16.9113072573 -37.5868114231 150.137666007 55.2414111996 -76.0318211852 84.1687423376 8.69933853238 -11.255209982 177.256306962 55.7062132411 -80.1601085666 97.9740252744 12.5166548094 -25.2791082637 166.033383744 57.5339109347 -51.0103800504 111.276675463 11.0480467349 39.2774985972 -128.624373898 55.6324363871 -72.0704622957 107.105140274 13.7570666677 -3.62234483517 -168.207379045 61.0856156099 -35.0145641878 124.24858127 16.2661662876 67.7960148998 -91.5739531205 52.9108606004 -62.6415869745 121.828261972 8.02225981794 -2.71221417711 -161.438754172 66.6323612582 -26.1400789678 145.68393235 
9.38843727112 123.397026062 59.5905265808 -53.2764460348 -19.6559442361 31.0355398375 25.869895916 -89.9999993688 26.5650706268 56.9749436824 -158.188825422 19.4572882846 64.5664634192 -79.327440522 78.0860608889 22.4746973017 -142.372687927 -14.682237721 12.8650626657 -48.2230808738 131.054307056 57.1636426923 -101.614879066 78.7368282691 17.9944324501 -35.7797479195 151.687483208 53.5259785211 -74.2971611117 84.4341580842 8.69932894762 -11.2552152982 177.256282728 54.7042216954 -82.0479301651 96.994704189 13.6326268776 -22.7321802919 168.699626963 56.4686207626 -51.0189730164 110.632989237 11.0480498269 39.2775037008 -128.624376921 54.9375541745 -73.8624584994 106.297351907 14.3926754593 -2.48920930614 -167.070210182 60.4539676164 -35.8741866017 123.549806094 16.2661657039 67.796013017 -91.5739550545 51.9885405111 -64.052628944 121.471728113 8.0589194813 0.121491887234 -158.613881941 65.7454526431 -27.3489958044 145.426609307 
9.81341552734 122.333778381 54.583114624 -51.8988241839 -20.1077458871 31.6768672873 25.8698941995 -89.9999988721 26.5650711812 55.9074724885 -158.806964196 18.1039077673 64.379567478 -80.710117738 76.0230136282 21.7432095772 -143.53969641 -15.0073183026 12.8650640396 -48.2230737235 131.054314341 55.6440355979 -101.857541086 77.8726221787 19.0787551113 -34.1153267412 153.122907598 51.282216752 -73.065576397 84.1979252243 8.69933676301 -11.2552130898 177.256306902 53.0684497985 -83.9325558858 95.5798136686 14.8769234591 -20.4169517258 171.15239008 54.6169412082 -50.8404043748 109.974676925 11.0480498594 39.2774961393 -128.62437381 53.6445702972 -75.6567619313 105.07492506 15.0891250365 -1.18134393445 -165.706175163 59.0488679534 -36.6677988309 122.799269505 16.2661751318 67.7960158233 -91.5739588857 50.4198468752 -65.6790070357 120.573111096 8.37669239196 4.1476500886 -154.471628772 64.128885375 -28.3069355688 144.943515091 
9.96120262146 121.673538208 51.4739189148 -51.4562279205 -20.4255375174 32.2802120547 25.8698982571 -90.0000007776 26.5650713722 55.781315012 -158.901699554 17.4590423032 64.4552899478 -81.7106702597 75.1511498091 21.5292946771 -142.343311827 -13.8357290218 12.8650648124 -48.223076503 131.054316081 55.2064424865 -102.231973836 77.2629414174 19.6367955732 -33.2780328651 153.90508185 50.40749407 -72.5431677154 83.8813287599 8.69932869879 -11.2552089506 177.256312519 52.439391469 -85.0573965189 94.7123370158 15.6296354763 -19.2712374507 172.36169391 53.826385068 -50.6951322817 109.500573437 11.0480598909 39.277514708 -128.62436399 53.250453383 -76.684231827 104.317220356 15.4159403744 -0.505123382527 -165.03040734 58.548430181 -37.1791180902 122.190207736 16.266172495 67.7960231514 -91.573948716 49.8299481375 -66.6538512833 119.988588997 8.49280658219 6.29385136031 -152.330911541 63.4938635371 -28.975035959 144.510662866 
10.3987398148 121.218406677 48.3453521729 -51.0218278843 -20.706184871 32.4692716931 25.8698978067 -90.0000003125 26.5650734251 56.1521537104 -158.513911254 17.5228360492 64.7313389408 -82.619300578 74.9683967814 21.6912416905 -139.176280942 -11.0449841459 12.8650681686 -48.2230775552 131.054310854 54.8853385082 -102.312869738 77.2228042789 20.3130030954 -32.2976038729 154.804130103 49.7565168097 -71.6179591759 84.0679444238 8.69933918985 -11.2552170479 177.256304338 51.8470095188 -85.843031956 94.4147188361 16.4377731762 -18.4282247506 173.247478233 53.2449282369 -50.2780818205 109.549097862 11.048040474 39.2775059098 -128.624365708 52.9924063426 -77.2773168664 104.11498543 15.6568333654 -0.264184136904 -164.78991697 58.3573333847 -37.4509031041 122.05029947 16.2661665925 67.7960174608 -91.5739523075 49.2801991392 -67.1654958478 119.943156873 8.57770050107 7.10796321439 -151.486435501 63.02349518 -29.3841174636 144.587519941 
11.5972137451 120.412612915 42.677066803 -50.4018447759 -20.804046115 32.3487974001 25.8698946456 -90.000001393 26.5650733144 56.7382933033 -157.779411301 17.8049815986 65.0834333482 -83.6354644998 74.9179675807 22.0422854739 -134.744375508 -7.16455195164 12.8650619184 -48.2230738642 131.054316416 54.4138925595 -102.35615415 77.1725831386 21.026664855 -31.3483713966 155.647405281 48.9364927781 -70.6228265666 84.3436980126 8.69933245297 -11.2552060589 177.256316929 50.9594237209 -86.6858034693 94.0603929961 17.0120652896 -17.695836768 174.036897167 52.3998788804 -50.2755140731 109.632396684 11.0480424169 39.2774985728 -128.624356884 52.4927827492 -77.7599198395 103.948344702 15.8773352709 -0.0227232283473 -164.52627029 57.9283118491 -37.673156082 122.066451651 16.2661604838 67.7960131439 -91.5739560993 48.0478041225 -67.6294802877 119.96388664 8.76628532376 8.29932992116 -150.130004616 61.8835474365 -29.6402169292 144.988269204 
11.7502965927 119.959159851 39.7475128174 -50.4810374051 -20.6759851892 32.5237117166 25.869896968 -89.9999979834 26.5650729484 57.425344785 -157.007647306 17.8477391937 65.3690347489 -84.5135384573 74.8676521003 22.4046680013 -130.534317748 -3.68464909629 12.8650733251 -48.2230822974 131.054315898 54.4713969839 -102.345012704 76.8086415867 21.1720792614 -31.2675124149 155.713577855 48.7196086541 -70.2770772658 84.1223083508 8.69934158248 -11.2552132492 177.256295307 50.6438920116 -87.2904781868 93.3986017911 17.1726024769 -17.2946856059 174.472335432 51.9255723337 -50.4895239343 109.221404662 11.0480546846 39.2775058496 -128.624367263 52.441905088 -78.075223441 103.417531102 15.9492782436 0.286685711098 -164.219797261 57.6898796589 -37.8008179178 121.623745596 16.2661703542 67.7960159276 -91.573957806 47.3561418533 -67.9370254099 119.614387013 8.82901392559 9.86130396791 -148.471900126 61.072604283 -29.761568978 144.928034296 
11.9806776047 119.478096008 37.5225753784 -50.088509844 -20.5044962126 32.4012669139 25.8698935058 -89.9999968507 26.5650734697 58.232090443 -155.915292417 18.1207037617 65.7316933186 -85.6040699283 74.8380594502 23.2472513438 -125.219039246 0.883919387056 12.8650682873 -48.2230756466 131.054307589 54.1825796668 -102.510617217 76.3843698974 21.3473838943 -31.0894056307 155.858933964 48.1965624163 -70.1398824743 83.9334396826 8.69932282838 -11.2552169876 177.256301324 49.7168337925 -88.4487665525 92.508435877 17.3740373425 -16.5758022173 175.262269981 50.9018072527 -51.2110741847 108.808235766 11.0480481565 39.277508575 -128.624368713 51.9433726423 -78.7659219541 102.767012569 16.1042300529 0.865832702424 -163.627323811 57.0637924765 -38.2268727732 121.222842318 16.2661590758 67.7960073727 -91.5739561763 45.8416323045 -68.2434329086 119.465610141 8.93149210717 12.0435908634 -146.062667191 59.4314608877 -29.9142033701 145.328273813 
15.8038253784 116.002655029 27.8355236053 -49.4896593412 -20.2511713236 33.3084458198 25.8698936584 -90.0000000698 26.5650718297 60.3814305404 -154.46093719 17.1611513413 66.7479389441 -89.3729566961 74.0734288343 23.0067482877 -112.564428815 11.4744910846 12.8650683342 -48.2230675384 131.054327249 53.9688750499 -103.733547034 73.9298313511 21.3818045861 -31.2014287221 155.830747382 47.052332044 -70.9011513293 81.9979960754 8.69934684087 -11.2551985318 177.256326225 47.8888906817 -93.176219623 88.1910568923 17.032183395 -14.1417949571 177.906028001 48.3074963718 -55.7438394192 105.408391704 11.0480607086 39.2775053706 -128.624353156 50.4237503928 -82.4464454222 99.2993746768 15.6512497949 5.07968988767 -159.510901131 54.6901396084 -42.3882849494 118.284946213 16.2661779844 67.7960152786 -91.5739469364 41.3558896692 -69.1992434151 118.781373937 9.23113911732 19.3389124693 -138.188277314 54.304063579 -30.5433133628 146.236293933 
17.6382350922 114.281944275 23.3283042908 -49.3898805215 -19.3730787785 32.3499995134 25.8698970308 -89.9999967856 26.5650702565 62.2962427747 -153.273319876 17.8667383173 67.5430318207 -91.6358809612 74.8433601237 25.2559503408 -104.47235997 18.4418409426 12.8650626454 -48.2230743106 131.054308516 53.9403961441 -103.031896669 74.001266709 21.363397676 -31.4677888912 155.473147698 46.8864512159 -70.1649847517 82.2701124866 8.69932572874 -11.2552156806 177.256295301 47.1596085966 -94.1111046152 87.1693264134 16.5588708777 -13.6826231437 178.402997073 47.4438424524 -57.2415664978 104.636038057 11.048051614 39.2775096867 -128.624366543 49.5218195525 -83.0900321526 98.4837255725 15.1148917768 6.73210352053 -157.864881534 53.5578053981 -43.8377230699 117.769264963 16.2661658918 67.7960084619 -91.5739486809 39.3733543562 -68.4843760932 119.018293578 9.44845908861 20.8717513313 -136.300372488 52.0342382335 -29.7392007021 147.165395366 
